<?xml version="1.0" encoding="utf-8" ?>
<svg baseProfile="full" height="300mm" version="1.1" viewBox="0,0,200,300" width="200mm" xmlns="http://www.w3.org/2000/svg" xmlns:ev="http://www.w3.org/2001/xml-events" xmlns:xlink="http://www.w3.org/1999/xlink"><defs /><rect fill="#222222" height="300" width="200" x="0" y="0" /><text fill="#FFFFFF" style="font-size:12px; font-family:Arial; font-weight:bold;" x="10" y="20">Over 1km Runs</text><text fill="#FFFFFF" style="font-size:4px; font-family:Arial" x="10" y="280">Runner</text><text fill="#FFFFFF" style="font-size:9px; font-family:Arial" x="10" y="290">AndyJMR</text><text fill="#FFFFFF" style="font-size:4px; font-family:Arial" x="65" y="280">SPECIAL TRACKS</text><rect fill="yellow" height="2.6" width="2.6" x="65" y="283" /><text fill="#FFFFFF" style="font-size:3px; font-family:Arial" x="70" y="285.5">Over 20.0 km</text><rect fill="red" height="2.6" width="2.6" x="65" y="287" /><text fill="#FFFFFF" style="font-size:3px; font-family:Arial" x="70" y="289.5">Over 40.0 km</text><text fill="#FFFFFF" style="font-size:4px; font-family:Arial" x="120" y="280">STATISTICS</text><text fill="#FFFFFF" style="font-size:3px; font-family:Arial" x="120" y="285">Number: 1</text><text fill="#FFFFFF" style="font-size:3px; font-family:Arial" x="120" y="290">Weekly: 1.0</text><text fill="#FFFFFF" style="font-size:3px; font-family:Arial" x="141" y="285">Total: 22.0 km</text><text fill="#FFFFFF" style="font-size:3px; font-family:Arial" x="141" y="290">Avg: 22.0 km</text><text fill="#FFFFFF" style="font-size:3px; font-family:Arial" x="167" y="285">Min: 22.0 km</text><text fill="#FFFFFF" style="font-size:3px; font-family:Arial" x="167" y="290">Max: 22.0 km</text><polyline fill="none" points="67.82176171825267,231.0 68.21204995788867,230.90456912125228 69.10560461174464,230.0337587163158 69.70130771433469,229.77132141867332 73.32688004540978,229.17487080096907 74.88803300389554,228.5545588967725 75.71996319887694,228.54262978907354 77.25030392786721,229.32994825737114 78.50333459186368,227.838810259178 80.06448755034944,227.57636798256863 81.44076713209506,226.7174618240242 84.04953589162324,225.7989023481132 85.2512128399103,225.6318907507448 86.14476749370806,225.72732597873983 87.78808639739873,224.70139315154665 89.81142279750202,224.24807109704852 90.7871433965629,223.8066768633944 91.50609541684389,223.75895846700587 93.04670688899932,224.60595707716857 93.41645364230499,224.62981610318093 93.8272833682131,224.41508469222754 95.08031403226778,221.94564481757698 95.40897781297099,220.13230274274974 97.39123124047183,218.54560510789452 99.81512662331806,215.51531004803837 100.07189520203974,214.81141124996066 101.67413113306975,212.99795732270286 101.79738005087711,212.55652015546366 101.69467261934187,211.76908751142764 102.48551984172082,210.3493090439879 103.28663780726492,210.50441174146545 103.45096969761653,210.37317101099325 102.94770328339655,209.86013763548544 102.94770328339655,209.6095856248794 103.44069895445136,209.5976545632584 103.7077382763382,210.17034413455258 103.95423611183651,209.96751690241217 103.63584307429846,208.8579263359934 103.88234090979677,208.81020177176833 104.1493802316254,209.32323980523506 104.38560732401675,209.15620441631472 104.25208766316064,208.70282143019722 103.87207016668981,208.28523026508628 103.92342388239922,207.96308747879084 104.21100469049998,207.7602563751716 104.87860299512977,207.99888116605143 105.15591306012357,207.85570635059412 106.48083892621798,205.7199943088708 106.92248088150518,205.5171592706247 107.50791324093007,204.67002085282002 108.22686526126927,204.20468865845032 109.64422781567555,202.80868083883252 110.86644625023473,200.89958303024468 111.02050739747938,200.31491552104853 110.84590476396261,199.30068935930467 110.94861219543964,198.71601376426406 112.26326731831068,197.59438291703555 112.65355555794667,196.84264551381057 111.80108387669316,195.94771366006898 111.54431529802969,195.4226837480528 111.34917117818259,194.3845494031848 111.5135030685924,193.54926212735154 113.10546825645724,192.33211843440222 114.23525000270456,190.64957516692812 115.11853391339537,189.74266225435713 116.2996693753521,189.12213879306364 118.49760840897216,188.477745518765 119.20628968614619,188.01234814187046 119.49387049430516,187.55888222854992 119.68901461409405,186.71161220176873 120.66473521315493,185.5182636009922 121.30152128828922,184.42037200539198 121.10637716850033,183.59694646411663 121.50693615124328,182.5706397500544 123.5508140376769,180.91182241772913 124.13624639710179,180.2077128982055 126.05687536566984,178.84721794409415 126.32391468755668,178.23857027869963 126.10822908137925,176.722904317161 126.2622902286239,176.0426383270751 126.90934704692336,175.37430292779027 127.87479690281907,175.29076073107717 128.56293669372099,174.8491795449154 129.1997227689135,172.67705292590836 130.26788005622802,171.50742937009636 131.161434710084,169.65749038742797 131.28468362783315,168.34461249299784 130.84304167248774,163.95233071534312 129.90840404608753,160.0253939138929 129.73380141257076,157.9246069481378 129.81596735771745,156.99356414085923 130.53491937805666,155.1195193212552 130.62735606642673,154.39137905431562 130.53491937805666,150.39249410587217 130.35004600143293,149.46139057058463 130.76087572734104,146.04728003616037 130.76087572734104,143.74329524729546 131.0792687648791,140.42452131741447 130.8841246450902,139.87536247487878 130.31923377193743,139.39783092310972 128.68618561147014,139.11131104386732 128.67591486836318,139.25457107239345 128.665644125198,139.05161931282782 128.6964563546353,139.27844772650133 128.3677925739321,138.3591929774193 128.29589737189235,137.4041153546059 127.95696284796577,137.42799239148735 128.4191462896415,137.51156198167882 129.32297168666264,136.28188905039133 129.93921627558302,136.22219585628045 130.2986922856653,135.95954543542757 130.8841246450902,134.04934257774585 130.8019586999435,133.52403124984994 130.2781507993932,132.5689136194851 130.17544336785795,131.87644839517452 130.4116704603075,131.14816152172716 131.53118146338966,129.20206093577144 131.72632558323676,127.4827791292264 131.53118146338966,126.52761150264996 130.59654383698944,124.24711682424822 130.43221194657963,122.2889597772737 130.8019586999435,120.53375418295764 131.98309416190023,117.87104438182723 132.17823828168912,116.3784671684989 132.02417713450268,114.7186986329325 131.3565788298729,112.25885386422306 130.3603167445399,109.91837034212222 129.15863979625283,107.87637909388286 128.9737664196291,107.05240747716016 129.07647385110613,106.45532291761629 129.83650884404778,105.02230736411002 130.03165296383668,104.03112785710255 129.68244769680314,101.57105516663432 130.07273593643913,99.06316006144334 129.06620310794096,96.20887022899842 128.92241270386148,95.14595763640682 129.29215945722535,92.91261498835956 128.8916004744242,88.94742948652129 129.2818887140602,85.746517622385 128.6451026389259,81.93636115522531 129.15863979625283,79.81026299410587 129.14836905314587,78.47247326476645 129.42567911813967,77.34967347225756 128.92241270386148,75.99991030857927 127.14557413937291,73.77814182916336 127.62829906726256,70.68431760258682 127.39207197487121,69.0 127.38180123176426,69.22696621843352 127.26882305712206,69.07167359095911 126.09795833827229,69.07167359095911 126.16985354031203,69.99148071808304 124.53680537984474,70.97100750886602 123.48918957880232,72.64335108177329 122.93456944881473,73.0017072617411 119.21656042936957,73.45562349007378 114.48174783826107,73.73036139143369 113.66008838644484,73.61091021044558 113.29034163308097,73.75425161277235 113.26980014680885,74.12454941029864 111.8729790787911,74.22010993910953 111.86270833556773,74.36345058377628 112.1502891437267,74.41123075904034" stroke="yellow" stroke-linecap="round" stroke-linejoin="round" stroke-width="0.5"><title>2026-06-29 22.0km</title><desc>1782735739000</desc></polyline></svg>