<?xml version="1.0" encoding="utf-8" ?>
<svg baseProfile="full" height="300mm" version="1.1" viewBox="0,0,200,300" width="200mm" xmlns="http://www.w3.org/2000/svg" xmlns:ev="http://www.w3.org/2001/xml-events" xmlns:xlink="http://www.w3.org/1999/xlink"><defs /><rect fill="#222222" height="300" width="200" x="0" y="0" /><text fill="#FFFFFF" style="font-size:12px; font-family:Arial; font-weight:bold;" x="10" y="20">running</text><text fill="#FFFFFF" style="font-size:4px; font-family:Arial" x="10" y="280">Runner</text><text fill="#FFFFFF" style="font-size:9px; font-family:Arial" x="10" y="290">Andy</text><text fill="#FFFFFF" style="font-size:4px; font-family:Arial" x="65" y="280">SPECIAL TRACKS</text><rect fill="yellow" height="2.6" width="2.6" x="65" y="283" /><text fill="#FFFFFF" style="font-size:3px; font-family:Arial" x="70" y="285.5">Over 20.0 km</text><rect fill="red" height="2.6" width="2.6" x="65" y="287" /><text fill="#FFFFFF" style="font-size:3px; font-family:Arial" x="70" y="289.5">Over 40.0 km</text><text fill="#FFFFFF" style="font-size:4px; font-family:Arial" x="120" y="280">STATISTICS</text><text fill="#FFFFFF" style="font-size:3px; font-family:Arial" x="120" y="285">Number: 5</text><text fill="#FFFFFF" style="font-size:3px; font-family:Arial" x="120" y="290">Weekly: 1.7</text><text fill="#FFFFFF" style="font-size:3px; font-family:Arial" x="141" y="285">Total: 18.8 km</text><text fill="#FFFFFF" style="font-size:3px; font-family:Arial" x="141" y="290">Avg: 3.8 km</text><text fill="#FFFFFF" style="font-size:3px; font-family:Arial" x="167" y="285">Min: 2.0 km</text><text fill="#FFFFFF" style="font-size:3px; font-family:Arial" x="167" y="290">Max: 8.1 km</text><polyline fill="none" points="52.24971634452231,44.165359092730796 51.778347205836326,44.364677711972035 51.94975416525267,43.667062182939844 51.049867627443746,44.56399624876212 48.3502080142498,38.93321579848998 45.5219931807369,36.890172968560364 43.9364788045641,39.83015869036899 39.865563514176756,43.11893498612335 39.35134263546206,44.613825870124856 38.28004913800396,44.215188755246345 38.62286305706948,40.67726988604409 41.66533659002744,38.58440422217245 43.03659226675518,34.9467827124754 44.53640316310339,34.0 46.20762101910077,34.249153526034206 49.89287065039389,36.44169899090775 53.578120281687006,40.67726988604409 52.97819592291489,42.12233848278993 54.349451599642634,44.862973899173085 59.748770826729015,50.34419789395179 61.71995086199604,57.120897591870744 60.73436084436253,65.94042998406803 60.73436084436253,75.75632961510564 58.93458776874468,79.04486034470028 58.89173602871597,81.4863307433261 60.134436485823244,83.42953302364913 59.748770826729015,92.84647906999453 59.363105167634785,96.63313558357186 58.334663410205394,97.92856386644416 58.20610819058493,104.00706539259409 57.220518172718585,104.75441683753161 57.04911121306941,106.0" stroke="#4DD2FF" stroke-linecap="round" stroke-linejoin="round" stroke-width="0.5"><title>2025-09-21 2.7km</title><desc>1758412832000</desc></polyline><polyline fill="none" points="128.41749522881582,105.72394494561013 129.36722041130997,106.0 131.50410207174718,104.17803400050616 134.11584632354788,104.61972329922719 135.87283791112714,75.02573143021436 137.15496690711007,72.26501411118079 148.21926528285258,72.81715871836059 151.02095457119867,74.30794630217133 154.81985530094244,73.31408837606432 168.21098037343472,73.31408837606432 169.20819181506522,72.98280198912835 170.01545822015032,70.27728879096685 166.8813651180826,65.08708218840184 161.80033539189026,60.17290384345688 161.0405552459415,55.42432893242221 165.17185978940688,45.650966078508645 167.26125519094057,44.04966355813667 169.73054066533223,43.33183672907762 171.48753225291148,41.620091928809416 171.58250477118418,39.30094504536828 169.44562311074696,35.87742406479083 162.60760179697536,34.0 147.98183398717083,36.09829704975709 145.65500729018822,39.74268808658235 145.65500729018822,42.83487912744749 144.37287829397246,46.258355431607924 142.94829052034765,47.36269793740939" stroke="#4DD2FF" stroke-linecap="round" stroke-linejoin="round" stroke-width="0.5"><title>2025-09-21 3.1km</title><desc>1758411097000</desc></polyline><polyline fill="none" points="86.0,155.49006755762093 84.65664160402957,155.52503430666548 84.3458646616782,155.87470119992213 83.92481203004718,155.35020045286365 83.84461152885342,154.8140416084425 81.19799498748034,154.96556501892337 79.4335839599371,154.8256972626623 79.21303258143598,155.00053193084022 77.08771929825889,154.8723198673615 75.1629072681535,154.9772206574562 73.88972431077855,154.8256972626623 73.00751879700692,154.51099417580554 72.71679197996855,154.56927259154327 70.54135338345077,153.79999507447064 69.45864661654923,153.69509318767086 67.46365914790658,152.90249799508456 66.66165413538693,152.82090699676337 64.93734335841145,152.05161753429275 62.761904761893675,151.72525071985 62.340852130320854,151.3755709402394 61.87969924812205,150.25658834735077 61.448621553892735,149.88359167826275 58.98245614033658,150.14002702098514 58.53132832079427,150.90932954474556 58.080200501251966,151.11913841166825 56.72681704262504,150.9676098247728 55.11278195492923,151.18907461375784 53.729323308274616,150.83939316889882 53.5388471178012,150.6295837806756 53.208020050195046,150.6762081229681 52.63659147871658,150.3265250852346 50.20050125318812,149.42900031705358 49.378446115297265,148.90446954250365 47.91478696744889,148.50815578090987 41.448621553892735,145.6056977687258 40.887218045128975,145.1744024411164 37.80952380952658,144.27683659681497 36.29573934833752,144.12529880007787 34.30075187969487,144.20689610058616 29.97994987468701,145.12777582025592 28.095238095207606,145.3725653644069 20.907268170441967,145.30262554895307 17.19799498753855,144.89464242618124 17.137844611541368,145.55907132647553 16.82706766919,146.01367831453535 16.61654135340359,149.51059377346974 16.24561403511325,149.55721857914614 16.135338345891796,151.21238667143916 14.501253132824786,151.29397883539787 14.51127819553949,151.51544298241788 14.130325814534444,151.52709897806926 14.0,151.7718746084065 14.481203007570002,152.2381124321182" stroke="#4DD2FF" stroke-linecap="round" stroke-linejoin="round" stroke-width="0.5"><title>2025-09-13 8.1km</title><desc>1757762602000</desc></polyline><polyline fill="none" points="138.75531306141056,186.0 138.3519162205048,184.8274348998675 139.81422976846807,175.79860230529448 156.1013772180304,177.14707346068462 157.8662383966148,174.97779220383381 159.12685352447443,159.32354325905908 160.3874686518684,157.3300872356631 159.27812733966857,153.2258909707307 161.6480837794952,114.46908500650898 159.07642891909927,114.0 159.17727812938392,114.99680517421803 158.26963523752056,115.23134731309256 157.96708760689944,119.15991369343828 156.45434945379384,119.80489959812257 157.31156774051487,122.7952791917487" stroke="#4DD2FF" stroke-linecap="round" stroke-linejoin="round" stroke-width="0.5"><title>2025-08-21 2.0km</title><desc>1755781715000</desc></polyline><polyline fill="none" points="44.21435255021788,266.0 41.311160281067714,265.18023679294856 42.182117961812764,255.77696740208194 42.80423059104942,254.76429629861377 49.191253582481295,254.37851625151234 54.375525491079316,255.0054086659511 56.57365678041242,254.33029372309102 57.36166611057706,241.69581927068066 55.86859580082819,239.7186376733298 56.075966677162796,237.16275634028716 57.23724358459003,235.95714706918807 58.68883971916512,215.5577650105115 56.65660513076,208.46840880950913 51.14053982007317,203.64565582742216 50.145159613806754,201.4754006882431 50.76727224257775,200.02855830886983 46.24658713839017,195.44686111313058 43.011601467151195,194.0 46.37100966414437,194.28937258236692 48.195873375982046,197.56891594571061 52.46771342866123,202.00590843407554 57.73493368783966,205.23716983367922 58.14967544050887,206.53931361087598 57.19576940941624,208.4201815268898" stroke="#4DD2FF" stroke-linecap="round" stroke-linejoin="round" stroke-width="0.5"><title>2025-08-20 2.9km</title><desc>1755693145000</desc></polyline></svg>