<?xml version="1.0" encoding="utf-8" ?>
<svg baseProfile="full" height="200mm" version="1.1" viewBox="0,0,200,200" width="200mm" xmlns="http://www.w3.org/2000/svg" xmlns:ev="http://www.w3.org/2001/xml-events" xmlns:xlink="http://www.w3.org/1999/xlink"><defs /><rect fill="#1a1a1a" height="200" width="200" x="0" y="0" /><rect fill="#1a1a1a" height="200" width="180" x="10" y="0" /><text alignment-baseline="middle" fill="#e1ed5e" style="dominant-baseline: central; font-size:9.0px; font-family:Arial;" text-anchor="middle" x="100.0" y="100.0">2026</text><line stroke="#e1ed5e" stroke-width="0.3" x1="100.0" x2="100.0" y1="15.0" y2="10.0" /><path d="M 100.0 14.0 a86.0,86.0 0 0,1 42.46469731375804,11.215312516191453" fill="none" id="id13" stroke="none" /><text fill="#e1ed5e" style="font-size:6.75px; font-family:Arial;" text-anchor="middle"><textPath startOffset="22.20632615414155" xlink:href="#id13">January</textPath></text><path d="M 100.0 79.0 l 0.0 -14.416014875942281 a35.41601487594228,35.41601487594228 0 0,0 0.6096284776799338,0.005247264773970464 l -0.24814799840740545 14.413878987776869" fill="#ff810b" stroke="none" /><line stroke="#e1ed5e" stroke-width="0.3" x1="143.23703022742887" x2="145.7803849466894" y1="26.81831364943548" y2="22.513508569990506" /><path d="M 143.74570117128098 25.957352633546492 a86.0,86.0 0 0,1 28.547481713284135,27.462654790039103" fill="none" id="id14" stroke="none" /><text fill="#e1ed5e" style="font-size:6.75px; font-family:Arial;" text-anchor="middle"><textPath startOffset="19.985693538727396" xlink:href="#id14">February</textPath></text><path d="M 117.45458315368197 88.32363383020206 l 6.475949653287676 -4.332132070023806 a28.791360098470967,28.791360098470967 0 0,0 0.2720144150551536,0.41429661596532874 l -6.549560703700755 4.220017390080804" fill="#ff1e03" stroke="none" /><line stroke="#e1ed5e" stroke-width="0.3" x1="172.23445277983987" x2="176.4835382374775" y1="55.19839476539836" y2="52.563006222186495" /><path d="M 173.08426987136738 54.67131705675599 a86.0,86.0 0 0,1 12.851231095245387,41.99856678651699" fill="none" id="id15" stroke="none" /><text fill="#e1ed5e" style="font-size:6.75px; font-family:Arial;" text-anchor="middle"><textPath startOffset="22.20632615414155" xlink:href="#id15">March</textPath></text><path d="M 117.84615892207809 88.93136811851018 l 5.136662572223175 -3.185885957847583 a27.04443311794322,27.04443311794322 0 0,0 0.24196293938887475,0.39772345248412183 l -5.190741309898273 3.0969947321563795" fill="#ff0200" stroke="none" /><path d="M 118.89224826269711 90.83032412892265 l 9.696162780597193 -4.706198471191757 a31.777934714873993,31.777934714873993 0 0,0 0.23461468543680097,0.49415836173437455 l -9.775735659875751 4.538597693816842" fill="#ff4b07" stroke="none" /><path d="M 120.6074358757038 95.95851677861258 l 8.945185142261343 -1.754309264030097 a30.115587651007196,30.115587651007196 0 0,0 0.09538650055409166,0.5095585001190752 l -8.974057366725294 1.600072686448459" fill="#ff3204" stroke="none" /><line stroke="#e1ed5e" stroke-width="0.3" x1="184.98032266829074" x2="189.97916517819016" y1="98.17113171792111" y2="98.06355123074" /><path d="M 185.9800911702706 98.14961562048488 a86.0,86.0 0 0,1 -9.607161424134198,41.387399972396054" fill="none" id="id16" stroke="none" /><text fill="#e1ed5e" style="font-size:6.75px; font-family:Arial;" text-anchor="middle"><textPath startOffset="21.466115282336823" xlink:href="#id16">April</textPath></text><path d="M 120.99513854157772 99.54816195383933 l 6.280506026182956 -0.13516326963744607 a27.28196028755193,27.28196028755193 0 0,0 0.00606308164175104,0.46959235490401785 l -6.281902114942423 0.02703465667296551" fill="#ff0601" stroke="none" /><path d="M 120.99824983174949 100.27111621757518 l 6.157322197427678 0.07949947819147535 a27.157835399713793,27.157835399713793 0 0,0 -0.010058663873802828,0.46738658545487155 l -6.155041470868868 -0.1854758794364617" fill="#ff0400" stroke="none" /><path d="M 120.8583938346157 102.4346265915055 l 5.959170532718684 0.6955643448536055 a26.999626921388888,26.999626921388888 0 0,0 -0.057854402969555636,0.4611565151222036 l -5.94631462050228 -0.7980386142632041" fill="#ff0100" stroke="none" /><path d="M 120.49622156327973 104.57218783832717 l 5.769324933163905 1.2869902490724598 a26.911129679311248,26.911129679311248 0 0,0 -0.10474764334078118,0.4512501060115597 l -5.746316723892572 -1.3861090124325843" fill="#ff0000" stroke="none" /><line stroke="#e1ed5e" stroke-width="0.3" x1="174.80103733775053" x2="179.2010983576182" y1="140.37084112569926" y2="142.7455964860345" /><path d="M 175.68104954172406 140.8457921977663 a86.0,86.0 0 0,1 -30.038265399797805,32.042727171017184" fill="none" id="id17" stroke="none" /><text fill="#e1ed5e" style="font-size:6.75px; font-family:Arial;" text-anchor="middle"><textPath startOffset="22.206326154141568" xlink:href="#id17">May</textPath></text><path d="M 115.32070863581623 114.36230785411682 l 7.363885687128251 6.903231159543938 a31.09363229245006,31.09363229245006 0 0,0 -0.36941226432370283,0.3873272822526324 l -7.243966871425584 -7.0289655583790775" fill="#ff4106" stroke="none" /><path d="M 111.45004920935366 117.60387380957326 l 6.651049943925815 10.225654211022253 a33.19837978585651,33.19837978585651 0 0,0 -0.48172145063370503,0.3074574216560201 l -6.47404669124518 -10.338626061502081" fill="#ff6108" stroke="none" /><line stroke="#e1ed5e" stroke-width="0.3" x1="143.8653032363475" x2="146.44561519142675" y1="172.8068346515853" y2="177.08958963109032" /><path d="M 144.38136562736335 173.6633856474863 a86.0,86.0 0 0,1 -40.68145358897372,12.25698825130547" fill="none" id="id18" stroke="none" /><text fill="#e1ed5e" style="font-size:6.75px; font-family:Arial;" text-anchor="middle"><textPath startOffset="21.466115282336833" xlink:href="#id18">June</textPath></text><path d="M 110.21172684928248 118.3499491758327 l 3.699613139551649 6.648014981499982 a28.608103612372233,28.608103612372233 0 0,0 -0.4323599753459549,0.23575713169267115 l -3.5846303523370455 -6.710712764952423" fill="#ff1b02" stroke="none" /><path d="M 107.2578585660854 119.70592522655815 l 3.176005089950831 8.62322105781893 a30.18950214883295,30.18950214883295 0 0,0 -0.48918557407497343,0.17540454247421505 l -3.027099955246123 -8.676613141333105" fill="#ff3304" stroke="none" /><path d="M 105.18746579009965 120.34920634021253 l 2.17863349713961 8.546266012511104 a29.819586536310034,29.819586536310034 0 0,0 -0.49847942399462875,0.12251411447374876 l -2.0312007884017698 -8.582501385298883" fill="#ff2e04" stroke="none" /><path d="M 103.06178313531738 120.77559828337769 l 1.3809776735910149 9.370564836515243 a30.47177832776363,30.47177832776363 0 0,0 -0.5195748854697586,0.07200834474896982 l -1.2194741969344258 -9.392947746756816" fill="#ff3805" stroke="none" /><path d="M 101.62511606390274 120.93702456842531 l 0.7243224115064203 9.331737259892515 a30.359805726802065,30.359805726802065 0 0,0 -0.5213750724096151,0.03595707755188256 l -0.5635845783178749 -9.342822681960683" fill="#ff3605" stroke="none" /><path d="M 101.26447882468166 120.96189622390904 l 3.7934364740449884 62.885688671727095 a84.0,84.0 0 0,0 -1.4440477263460816,0.07464077295119242 l -2.7104006792854274 -62.94166925144049" fill="#4dd2ff" stroke="none" /><line stroke="#e1ed5e" stroke-width="0.3" x1="102.19456741930631" x2="102.32365962044197" y1="184.97166512339345" y2="189.96999836594603" /><path d="M 102.22038585953345 185.97133177190398 a86.0,86.0 0 0,1 -42.740103519485714,-10.115201625700543" fill="none" id="id19" stroke="none" /><text fill="#e1ed5e" style="font-size:6.75px; font-family:Arial;" text-anchor="middle"><textPath startOffset="22.20632615414155" xlink:href="#id19">July</textPath></text><line stroke="#e1ed5e" stroke-width="0.3" x1="58.666819895761336" x2="56.23545636021788" y1="174.27360380694188" y2="178.64263932499728" /><path d="M 58.180547188652646 175.14741091055294 a86.0,86.0 0 0,1 -31.652253787137756,-30.449443065178592" fill="none" id="id20" stroke="none" /><text fill="#e1ed5e" style="font-size:6.75px; font-family:Arial;" text-anchor="middle"><textPath startOffset="22.20632615414155" xlink:href="#id20">August</textPath></text><line stroke="#e1ed5e" stroke-width="0.3" x1="26.63291911575756" x2="22.317208475507996" y1="142.92168965132927" y2="145.44649492493687" /><path d="M 25.769776987707644 143.4266507060508 a86.0,86.0 0 0,1 -11.730757126820373,-40.83630448921669" fill="none" id="id21" stroke="none" /><text fill="#e1ed5e" style="font-size:6.75px; font-family:Arial;" text-anchor="middle"><textPath startOffset="21.46611528233685" xlink:href="#id21">September</textPath></text><line stroke="#e1ed5e" stroke-width="0.3" x1="15.007084014347285" x2="10.007500721073583" y1="101.09737516637583" y2="101.16192664675087" /><path d="M 14.007167355692545 101.11028546245083 a86.0,86.0 0 0,1 10.666146001902534,-42.60595125391555" fill="none" id="id22" stroke="none" /><text fill="#e1ed5e" style="font-size:6.75px; font-family:Arial;" text-anchor="middle"><textPath startOffset="22.20632615414155" xlink:href="#id22">October</textPath></text><line stroke="#e1ed5e" stroke-width="0.3" x1="26.266209847984243" x2="21.928928074336255" y1="57.711370442889674" y2="55.22380399835377" /><path d="M 25.398753493254645 57.213857153982495 a86.0,86.0 0 0,1 29.58750427330803,-30.492523968695096" fill="none" id="id23" stroke="none" /><text fill="#e1ed5e" style="font-size:6.75px; font-family:Arial;" text-anchor="middle"><textPath startOffset="21.46611528233685" xlink:href="#id23">November</textPath></text><line stroke="#e1ed5e" stroke-width="0.3" x1="56.762969772571076" x2="54.21961505331055" y1="26.818313649435495" y2="22.513508569990535" /><path d="M 56.25429882871897 25.957352633546506 a86.0,86.0 0 0,1 42.265352541879196,-11.944610805530505" fill="none" id="id24" stroke="none" /><text fill="#e1ed5e" style="font-size:6.75px; font-family:Arial;" text-anchor="middle"><textPath startOffset="22.20632615414155" xlink:href="#id24">December</textPath></text></svg>